<svg width="21" height="20" viewBox="0 0 21 20" fill="none" xmlns="http://www.w3.org/2000/svg">
<g id="lock">
<path id="bg" d="M5.25117 16.4062H16.2742V10.4688H5.25117V16.4062ZM10.7627 11.9922C10.9627 11.9922 11.1575 12.0552 11.3191 12.1721C11.4807 12.289 11.6008 12.4537 11.662 12.6426C11.7233 12.8315 11.7226 13.0348 11.66 13.2233C11.5975 13.4117 11.4763 13.5756 11.3139 13.6914V14.7266C11.3139 14.8125 11.243 14.8828 11.1564 14.8828H10.369C10.2824 14.8828 10.2116 14.8125 10.2116 14.7266V13.6914C10.0491 13.5756 9.92794 13.4117 9.86538 13.2233C9.80281 13.0348 9.80211 12.8315 9.86338 12.6426C9.92464 12.4537 10.0447 12.289 10.2063 12.1721C10.3679 12.0552 10.5627 11.9922 10.7627 11.9922Z" fill="#E6F7FF"/>
<g id="Vector">
<path d="M17.0616 9.0625H15.7231V4.6875C15.7231 3.30664 14.5952 2.1875 13.2035 2.1875H8.32188C6.93022 2.1875 5.80233 3.30664 5.80233 4.6875V9.0625H4.46381C4.11541 9.0625 3.83392 9.3418 3.83392 9.6875V17.1875C3.83392 17.5332 4.11541 17.8125 4.46381 17.8125H17.0616C17.41 17.8125 17.6915 17.5332 17.6915 17.1875V9.6875C17.6915 9.3418 17.41 9.0625 17.0616 9.0625ZM7.21958 4.6875C7.21958 4.08398 7.71365 3.59375 8.32188 3.59375H13.2035C13.8118 3.59375 14.3058 4.08398 14.3058 4.6875V9.0625H7.21958V4.6875ZM16.2742 16.4063H5.25117V10.4688H16.2742V16.4063Z" fill="#62D2FF"/>
<path d="M10.2114 13.6913V14.7265C10.2114 14.8124 10.2823 14.8827 10.3689 14.8827H11.1563C11.2429 14.8827 11.3137 14.8124 11.3137 14.7265V13.6913C11.4762 13.5756 11.5975 13.4116 11.6601 13.2231C11.7227 13.0346 11.7234 12.8313 11.6622 12.6424C11.6009 12.4534 11.4808 12.2887 11.3191 12.1718C11.1575 12.0549 10.9626 11.9919 10.7626 11.9919C10.5625 11.9919 10.3677 12.0549 10.206 12.1718C10.0444 12.2887 9.92425 12.4534 9.86297 12.6424C9.8017 12.8313 9.80242 13.0346 9.86504 13.2231C9.92765 13.4116 10.0489 13.5756 10.2114 13.6913Z" fill="#62D2FF"/>
</g>
</g>
</svg>
